<?xml version="1.0" encoding="utf-8"?>
<COLLADA xmlns="http://www.collada.org/2005/11/COLLADASchema" version="1.4.1">
 <asset><unit name="meter" meter="1"/><up_axis>Z_UP</up_axis></asset>
 <library_effects><effect id="gtaBridge_skin-effect"><profile_COMMON><technique sid="common"><phong><diffuse><color>0.80 0.62 0.50 1</color></diffuse></phong></technique></profile_COMMON></effect></library_effects>
 <library_materials><material id="gtaBridge_skin" name="gtaBridge_skin"><instance_effect url="#gtaBridge_skin-effect"/></material></library_materials>
 <library_geometries><geometry id="ball-mesh" name="ball"><mesh>
  <source id="ball-pos"><float_array id="ball-pos-a" count="495">0.00000 0.50000 0.00000 0.00000 0.50000 0.00000 0.00000 0.50000 0.00000 0.00000 0.50000 0.00000 -0.00000 0.50000 0.00000 -0.00000 0.50000 0.00000 -0.00000 0.50000 0.00000 -0.00000 0.50000 0.00000 -0.00000 0.50000 -0.00000 -0.00000 0.50000 -0.00000 -0.00000 0.50000 -0.00000 0.00000 0.50000 -0.00000 0.00000 0.50000 -0.00000 0.00000 0.50000 -0.00000 0.00000 0.50000 -0.00000 0.15451 0.47553 0.00000 0.13921 0.47553 0.06704 0.09633 0.47553 0.12080 0.03438 0.47553 0.15063 -0.03438 0.47553 0.15063 -0.09633 0.47553 0.12080 -0.13921 0.47553 0.06704 -0.15451 0.47553 0.00000 -0.13921 0.47553 -0.06704 -0.09633 0.47553 -0.12080 -0.03438 0.47553 -0.15063 0.03438 0.47553 -0.15063 0.09633 0.47553 -0.12080 0.13921 0.47553 -0.06704 0.15451 0.47553 -0.00000 0.29389 0.40451 0.00000 0.26479 0.40451 0.12752 0.18324 0.40451 0.22977 0.06540 0.40451 0.28652 -0.06540 0.40451 0.28652 -0.18324 0.40451 0.22977 -0.26479 0.40451 0.12752 -0.29389 0.40451 0.00000 -0.26479 0.40451 -0.12752 -0.18324 0.40451 -0.22977 -0.06540 0.40451 -0.28652 0.06540 0.40451 -0.28652 0.18324 0.40451 -0.22977 0.26479 0.40451 -0.12752 0.29389 0.40451 -0.00000 0.40451 0.29389 0.00000 0.36445 0.29389 0.17551 0.25221 0.29389 0.31626 0.09001 0.29389 0.39437 -0.09001 0.29389 0.39437 -0.25221 0.29389 0.31626 -0.36445 0.29389 0.17551 -0.40451 0.29389 0.00000 -0.36445 0.29389 -0.17551 -0.25221 0.29389 -0.31626 -0.09001 0.29389 -0.39437 0.09001 0.29389 -0.39437 0.25221 0.29389 -0.31626 0.36445 0.29389 -0.17551 0.40451 0.29389 -0.00000 0.47553 0.15451 0.00000 0.42844 0.15451 0.20632 0.29649 0.15451 0.37178 0.10581 0.15451 0.46361 -0.10581 0.15451 0.46361 -0.29649 0.15451 0.37178 -0.42844 0.15451 0.20632 -0.47553 0.15451 0.00000 -0.42844 0.15451 -0.20632 -0.29649 0.15451 -0.37178 -0.10581 0.15451 -0.46361 0.10581 0.15451 -0.46361 0.29649 0.15451 -0.37178 0.42844 0.15451 -0.20632 0.47553 0.15451 -0.00000 0.50000 0.00000 0.00000 0.45048 0.00000 0.21694 0.31174 0.00000 0.39092 0.11126 0.00000 0.48746 -0.11126 0.00000 0.48746 -0.31174 0.00000 0.39092 -0.45048 0.00000 0.21694 -0.50000 0.00000 0.00000 -0.45048 0.00000 -0.21694 -0.31174 0.00000 -0.39092 -0.11126 0.00000 -0.48746 0.11126 0.00000 -0.48746 0.31174 0.00000 -0.39092 0.45048 0.00000 -0.21694 0.50000 0.00000 -0.00000 0.47553 -0.15451 0.00000 0.42844 -0.15451 0.20632 0.29649 -0.15451 0.37178 0.10581 -0.15451 0.46361 -0.10581 -0.15451 0.46361 -0.29649 -0.15451 0.37178 -0.42844 -0.15451 0.20632 -0.47553 -0.15451 0.00000 -0.42844 -0.15451 -0.20632 -0.29649 -0.15451 -0.37178 -0.10581 -0.15451 -0.46361 0.10581 -0.15451 -0.46361 0.29649 -0.15451 -0.37178 0.42844 -0.15451 -0.20632 0.47553 -0.15451 -0.00000 0.40451 -0.29389 0.00000 0.36445 -0.29389 0.17551 0.25221 -0.29389 0.31626 0.09001 -0.29389 0.39437 -0.09001 -0.29389 0.39437 -0.25221 -0.29389 0.31626 -0.36445 -0.29389 0.17551 -0.40451 -0.29389 0.00000 -0.36445 -0.29389 -0.17551 -0.25221 -0.29389 -0.31626 -0.09001 -0.29389 -0.39437 0.09001 -0.29389 -0.39437 0.25221 -0.29389 -0.31626 0.36445 -0.29389 -0.17551 0.40451 -0.29389 -0.00000 0.29389 -0.40451 0.00000 0.26479 -0.40451 0.12752 0.18324 -0.40451 0.22977 0.06540 -0.40451 0.28652 -0.06540 -0.40451 0.28652 -0.18324 -0.40451 0.22977 -0.26479 -0.40451 0.12752 -0.29389 -0.40451 0.00000 -0.26479 -0.40451 -0.12752 -0.18324 -0.40451 -0.22977 -0.06540 -0.40451 -0.28652 0.06540 -0.40451 -0.28652 0.18324 -0.40451 -0.22977 0.26479 -0.40451 -0.12752 0.29389 -0.40451 -0.00000 0.15451 -0.47553 0.00000 0.13921 -0.47553 0.06704 0.09633 -0.47553 0.12080 0.03438 -0.47553 0.15063 -0.03438 -0.47553 0.15063 -0.09633 -0.47553 0.12080 -0.13921 -0.47553 0.06704 -0.15451 -0.47553 0.00000 -0.13921 -0.47553 -0.06704 -0.09633 -0.47553 -0.12080 -0.03438 -0.47553 -0.15063 0.03438 -0.47553 -0.15063 0.09633 -0.47553 -0.12080 0.13921 -0.47553 -0.06704 0.15451 -0.47553 -0.00000 0.00000 -0.50000 0.00000 0.00000 -0.50000 0.00000 0.00000 -0.50000 0.00000 0.00000 -0.50000 0.00000 -0.00000 -0.50000 0.00000 -0.00000 -0.50000 0.00000 -0.00000 -0.50000 0.00000 -0.00000 -0.50000 0.00000 -0.00000 -0.50000 -0.00000 -0.00000 -0.50000 -0.00000 -0.00000 -0.50000 -0.00000 0.00000 -0.50000 -0.00000 0.00000 -0.50000 -0.00000 0.00000 -0.50000 -0.00000 0.00000 -0.50000 -0.00000</float_array><technique_common><accessor source="#ball-pos-a" count="165" stride="3"><param name="X" type="float"/><param name="Y" type="float"/><param name="Z" type="float"/></accessor></technique_common></source>
  <source id="ball-nrm"><float_array id="ball-nrm-a" count="495">0.00000 1.00000 0.00000 0.00000 1.00000 0.00000 0.00000 1.00000 0.00000 0.00000 1.00000 0.00000 -0.00000 1.00000 0.00000 -0.00000 1.00000 0.00000 -0.00000 1.00000 0.00000 -0.00000 1.00000 0.00000 -0.00000 1.00000 -0.00000 -0.00000 1.00000 -0.00000 -0.00000 1.00000 -0.00000 0.00000 1.00000 -0.00000 0.00000 1.00000 -0.00000 0.00000 1.00000 -0.00000 0.00000 1.00000 -0.00000 0.30902 0.95106 0.00000 0.27841 0.95106 0.13408 0.19267 0.95106 0.24160 0.06876 0.95106 0.30127 -0.06876 0.95106 0.30127 -0.19267 0.95106 0.24160 -0.27841 0.95106 0.13408 -0.30902 0.95106 0.00000 -0.27841 0.95106 -0.13408 -0.19267 0.95106 -0.24160 -0.06876 0.95106 -0.30127 0.06876 0.95106 -0.30127 0.19267 0.95106 -0.24160 0.27841 0.95106 -0.13408 0.30902 0.95106 -0.00000 0.58779 0.80902 0.00000 0.52958 0.80902 0.25503 0.36648 0.80902 0.45955 0.13079 0.80902 0.57305 -0.13079 0.80902 0.57305 -0.36648 0.80902 0.45955 -0.52958 0.80902 0.25503 -0.58779 0.80902 0.00000 -0.52958 0.80902 -0.25503 -0.36648 0.80902 -0.45955 -0.13079 0.80902 -0.57305 0.13079 0.80902 -0.57305 0.36648 0.80902 -0.45955 0.52958 0.80902 -0.25503 0.58779 0.80902 -0.00000 0.80902 0.58779 0.00000 0.72890 0.58779 0.35102 0.50441 0.58779 0.63251 0.18002 0.58779 0.78873 -0.18002 0.58779 0.78873 -0.50441 0.58779 0.63251 -0.72890 0.58779 0.35102 -0.80902 0.58779 0.00000 -0.72890 0.58779 -0.35102 -0.50441 0.58779 -0.63251 -0.18002 0.58779 -0.78873 0.18002 0.58779 -0.78873 0.50441 0.58779 -0.63251 0.72890 0.58779 -0.35102 0.80902 0.58779 -0.00000 0.95106 0.30902 0.00000 0.85687 0.30902 0.41265 0.59297 0.30902 0.74357 0.21163 0.30902 0.92721 -0.21163 0.30902 0.92721 -0.59297 0.30902 0.74357 -0.85687 0.30902 0.41265 -0.95106 0.30902 0.00000 -0.85687 0.30902 -0.41265 -0.59297 0.30902 -0.74357 -0.21163 0.30902 -0.92721 0.21163 0.30902 -0.92721 0.59297 0.30902 -0.74357 0.85687 0.30902 -0.41265 0.95106 0.30902 -0.00000 1.00000 0.00000 0.00000 0.90097 0.00000 0.43388 0.62349 0.00000 0.78183 0.22252 0.00000 0.97493 -0.22252 0.00000 0.97493 -0.62349 0.00000 0.78183 -0.90097 0.00000 0.43388 -1.00000 0.00000 0.00000 -0.90097 0.00000 -0.43388 -0.62349 0.00000 -0.78183 -0.22252 0.00000 -0.97493 0.22252 0.00000 -0.97493 0.62349 0.00000 -0.78183 0.90097 0.00000 -0.43388 1.00000 0.00000 -0.00000 0.95106 -0.30902 0.00000 0.85687 -0.30902 0.41265 0.59297 -0.30902 0.74357 0.21163 -0.30902 0.92721 -0.21163 -0.30902 0.92721 -0.59297 -0.30902 0.74357 -0.85687 -0.30902 0.41265 -0.95106 -0.30902 0.00000 -0.85687 -0.30902 -0.41265 -0.59297 -0.30902 -0.74357 -0.21163 -0.30902 -0.92721 0.21163 -0.30902 -0.92721 0.59297 -0.30902 -0.74357 0.85687 -0.30902 -0.41265 0.95106 -0.30902 -0.00000 0.80902 -0.58779 0.00000 0.72890 -0.58779 0.35102 0.50441 -0.58779 0.63251 0.18002 -0.58779 0.78873 -0.18002 -0.58779 0.78873 -0.50441 -0.58779 0.63251 -0.72890 -0.58779 0.35102 -0.80902 -0.58779 0.00000 -0.72890 -0.58779 -0.35102 -0.50441 -0.58779 -0.63251 -0.18002 -0.58779 -0.78873 0.18002 -0.58779 -0.78873 0.50441 -0.58779 -0.63251 0.72890 -0.58779 -0.35102 0.80902 -0.58779 -0.00000 0.58779 -0.80902 0.00000 0.52958 -0.80902 0.25503 0.36648 -0.80902 0.45955 0.13079 -0.80902 0.57305 -0.13079 -0.80902 0.57305 -0.36648 -0.80902 0.45955 -0.52958 -0.80902 0.25503 -0.58779 -0.80902 0.00000 -0.52958 -0.80902 -0.25503 -0.36648 -0.80902 -0.45955 -0.13079 -0.80902 -0.57305 0.13079 -0.80902 -0.57305 0.36648 -0.80902 -0.45955 0.52958 -0.80902 -0.25503 0.58779 -0.80902 -0.00000 0.30902 -0.95106 0.00000 0.27841 -0.95106 0.13408 0.19267 -0.95106 0.24160 0.06876 -0.95106 0.30127 -0.06876 -0.95106 0.30127 -0.19267 -0.95106 0.24160 -0.27841 -0.95106 0.13408 -0.30902 -0.95106 0.00000 -0.27841 -0.95106 -0.13408 -0.19267 -0.95106 -0.24160 -0.06876 -0.95106 -0.30127 0.06876 -0.95106 -0.30127 0.19267 -0.95106 -0.24160 0.27841 -0.95106 -0.13408 0.30902 -0.95106 -0.00000 0.00000 -1.00000 0.00000 0.00000 -1.00000 0.00000 0.00000 -1.00000 0.00000 0.00000 -1.00000 0.00000 -0.00000 -1.00000 0.00000 -0.00000 -1.00000 0.00000 -0.00000 -1.00000 0.00000 -0.00000 -1.00000 0.00000 -0.00000 -1.00000 -0.00000 -0.00000 -1.00000 -0.00000 -0.00000 -1.00000 -0.00000 0.00000 -1.00000 -0.00000 0.00000 -1.00000 -0.00000 0.00000 -1.00000 -0.00000 0.00000 -1.00000 -0.00000</float_array><technique_common><accessor source="#ball-nrm-a" count="165" stride="3"><param name="X" type="float"/><param name="Y" type="float"/><param name="Z" type="float"/></accessor></technique_common></source>
  <source id="ball-uv"><float_array id="ball-uv-a" count="330">0.00000 0.00000 0.07143 0.00000 0.14286 0.00000 0.21429 0.00000 0.28571 0.00000 0.35714 0.00000 0.42857 0.00000 0.50000 0.00000 0.57143 0.00000 0.64286 0.00000 0.71429 0.00000 0.78571 0.00000 0.85714 0.00000 0.92857 0.00000 1.00000 0.00000 0.00000 0.10000 0.07143 0.10000 0.14286 0.10000 0.21429 0.10000 0.28571 0.10000 0.35714 0.10000 0.42857 0.10000 0.50000 0.10000 0.57143 0.10000 0.64286 0.10000 0.71429 0.10000 0.78571 0.10000 0.85714 0.10000 0.92857 0.10000 1.00000 0.10000 0.00000 0.20000 0.07143 0.20000 0.14286 0.20000 0.21429 0.20000 0.28571 0.20000 0.35714 0.20000 0.42857 0.20000 0.50000 0.20000 0.57143 0.20000 0.64286 0.20000 0.71429 0.20000 0.78571 0.20000 0.85714 0.20000 0.92857 0.20000 1.00000 0.20000 0.00000 0.30000 0.07143 0.30000 0.14286 0.30000 0.21429 0.30000 0.28571 0.30000 0.35714 0.30000 0.42857 0.30000 0.50000 0.30000 0.57143 0.30000 0.64286 0.30000 0.71429 0.30000 0.78571 0.30000 0.85714 0.30000 0.92857 0.30000 1.00000 0.30000 0.00000 0.40000 0.07143 0.40000 0.14286 0.40000 0.21429 0.40000 0.28571 0.40000 0.35714 0.40000 0.42857 0.40000 0.50000 0.40000 0.57143 0.40000 0.64286 0.40000 0.71429 0.40000 0.78571 0.40000 0.85714 0.40000 0.92857 0.40000 1.00000 0.40000 0.00000 0.50000 0.07143 0.50000 0.14286 0.50000 0.21429 0.50000 0.28571 0.50000 0.35714 0.50000 0.42857 0.50000 0.50000 0.50000 0.57143 0.50000 0.64286 0.50000 0.71429 0.50000 0.78571 0.50000 0.85714 0.50000 0.92857 0.50000 1.00000 0.50000 0.00000 0.60000 0.07143 0.60000 0.14286 0.60000 0.21429 0.60000 0.28571 0.60000 0.35714 0.60000 0.42857 0.60000 0.50000 0.60000 0.57143 0.60000 0.64286 0.60000 0.71429 0.60000 0.78571 0.60000 0.85714 0.60000 0.92857 0.60000 1.00000 0.60000 0.00000 0.70000 0.07143 0.70000 0.14286 0.70000 0.21429 0.70000 0.28571 0.70000 0.35714 0.70000 0.42857 0.70000 0.50000 0.70000 0.57143 0.70000 0.64286 0.70000 0.71429 0.70000 0.78571 0.70000 0.85714 0.70000 0.92857 0.70000 1.00000 0.70000 0.00000 0.80000 0.07143 0.80000 0.14286 0.80000 0.21429 0.80000 0.28571 0.80000 0.35714 0.80000 0.42857 0.80000 0.50000 0.80000 0.57143 0.80000 0.64286 0.80000 0.71429 0.80000 0.78571 0.80000 0.85714 0.80000 0.92857 0.80000 1.00000 0.80000 0.00000 0.90000 0.07143 0.90000 0.14286 0.90000 0.21429 0.90000 0.28571 0.90000 0.35714 0.90000 0.42857 0.90000 0.50000 0.90000 0.57143 0.90000 0.64286 0.90000 0.71429 0.90000 0.78571 0.90000 0.85714 0.90000 0.92857 0.90000 1.00000 0.90000 0.00000 1.00000 0.07143 1.00000 0.14286 1.00000 0.21429 1.00000 0.28571 1.00000 0.35714 1.00000 0.42857 1.00000 0.50000 1.00000 0.57143 1.00000 0.64286 1.00000 0.71429 1.00000 0.78571 1.00000 0.85714 1.00000 0.92857 1.00000 1.00000 1.00000</float_array><technique_common><accessor source="#ball-uv-a" count="165" stride="2"><param name="S" type="float"/><param name="T" type="float"/></accessor></technique_common></source>
  <vertices id="ball-vtx"><input semantic="POSITION" source="#ball-pos"/></vertices>
  <triangles material="gtaBridge_skin" count="280"><input semantic="VERTEX" source="#ball-vtx" offset="0"/><input semantic="NORMAL" source="#ball-nrm" offset="1"/><input semantic="TEXCOORD" source="#ball-uv" offset="2" set="0"/><p>0 0 0 1 1 1 16 16 16 0 0 0 16 16 16 15 15 15 1 1 1 2 2 2 17 17 17 1 1 1 17 17 17 16 16 16 2 2 2 3 3 3 18 18 18 2 2 2 18 18 18 17 17 17 3 3 3 4 4 4 19 19 19 3 3 3 19 19 19 18 18 18 4 4 4 5 5 5 20 20 20 4 4 4 20 20 20 19 19 19 5 5 5 6 6 6 21 21 21 5 5 5 21 21 21 20 20 20 6 6 6 7 7 7 22 22 22 6 6 6 22 22 22 21 21 21 7 7 7 8 8 8 23 23 23 7 7 7 23 23 23 22 22 22 8 8 8 9 9 9 24 24 24 8 8 8 24 24 24 23 23 23 9 9 9 10 10 10 25 25 25 9 9 9 25 25 25 24 24 24 10 10 10 11 11 11 26 26 26 10 10 10 26 26 26 25 25 25 11 11 11 12 12 12 27 27 27 11 11 11 27 27 27 26 26 26 12 12 12 13 13 13 28 28 28 12 12 12 28 28 28 27 27 27 13 13 13 14 14 14 29 29 29 13 13 13 29 29 29 28 28 28 15 15 15 16 16 16 31 31 31 15 15 15 31 31 31 30 30 30 16 16 16 17 17 17 32 32 32 16 16 16 32 32 32 31 31 31 17 17 17 18 18 18 33 33 33 17 17 17 33 33 33 32 32 32 18 18 18 19 19 19 34 34 34 18 18 18 34 34 34 33 33 33 19 19 19 20 20 20 35 35 35 19 19 19 35 35 35 34 34 34 20 20 20 21 21 21 36 36 36 20 20 20 36 36 36 35 35 35 21 21 21 22 22 22 37 37 37 21 21 21 37 37 37 36 36 36 22 22 22 23 23 23 38 38 38 22 22 22 38 38 38 37 37 37 23 23 23 24 24 24 39 39 39 23 23 23 39 39 39 38 38 38 24 24 24 25 25 25 40 40 40 24 24 24 40 40 40 39 39 39 25 25 25 26 26 26 41 41 41 25 25 25 41 41 41 40 40 40 26 26 26 27 27 27 42 42 42 26 26 26 42 42 42 41 41 41 27 27 27 28 28 28 43 43 43 27 27 27 43 43 43 42 42 42 28 28 28 29 29 29 44 44 44 28 28 28 44 44 44 43 43 43 30 30 30 31 31 31 46 46 46 30 30 30 46 46 46 45 45 45 31 31 31 32 32 32 47 47 47 31 31 31 47 47 47 46 46 46 32 32 32 33 33 33 48 48 48 32 32 32 48 48 48 47 47 47 33 33 33 34 34 34 49 49 49 33 33 33 49 49 49 48 48 48 34 34 34 35 35 35 50 50 50 34 34 34 50 50 50 49 49 49 35 35 35 36 36 36 51 51 51 35 35 35 51 51 51 50 50 50 36 36 36 37 37 37 52 52 52 36 36 36 52 52 52 51 51 51 37 37 37 38 38 38 53 53 53 37 37 37 53 53 53 52 52 52 38 38 38 39 39 39 54 54 54 38 38 38 54 54 54 53 53 53 39 39 39 40 40 40 55 55 55 39 39 39 55 55 55 54 54 54 40 40 40 41 41 41 56 56 56 40 40 40 56 56 56 55 55 55 41 41 41 42 42 42 57 57 57 41 41 41 57 57 57 56 56 56 42 42 42 43 43 43 58 58 58 42 42 42 58 58 58 57 57 57 43 43 43 44 44 44 59 59 59 43 43 43 59 59 59 58 58 58 45 45 45 46 46 46 61 61 61 45 45 45 61 61 61 60 60 60 46 46 46 47 47 47 62 62 62 46 46 46 62 62 62 61 61 61 47 47 47 48 48 48 63 63 63 47 47 47 63 63 63 62 62 62 48 48 48 49 49 49 64 64 64 48 48 48 64 64 64 63 63 63 49 49 49 50 50 50 65 65 65 49 49 49 65 65 65 64 64 64 50 50 50 51 51 51 66 66 66 50 50 50 66 66 66 65 65 65 51 51 51 52 52 52 67 67 67 51 51 51 67 67 67 66 66 66 52 52 52 53 53 53 68 68 68 52 52 52 68 68 68 67 67 67 53 53 53 54 54 54 69 69 69 53 53 53 69 69 69 68 68 68 54 54 54 55 55 55 70 70 70 54 54 54 70 70 70 69 69 69 55 55 55 56 56 56 71 71 71 55 55 55 71 71 71 70 70 70 56 56 56 57 57 57 72 72 72 56 56 56 72 72 72 71 71 71 57 57 57 58 58 58 73 73 73 57 57 57 73 73 73 72 72 72 58 58 58 59 59 59 74 74 74 58 58 58 74 74 74 73 73 73 60 60 60 61 61 61 76 76 76 60 60 60 76 76 76 75 75 75 61 61 61 62 62 62 77 77 77 61 61 61 77 77 77 76 76 76 62 62 62 63 63 63 78 78 78 62 62 62 78 78 78 77 77 77 63 63 63 64 64 64 79 79 79 63 63 63 79 79 79 78 78 78 64 64 64 65 65 65 80 80 80 64 64 64 80 80 80 79 79 79 65 65 65 66 66 66 81 81 81 65 65 65 81 81 81 80 80 80 66 66 66 67 67 67 82 82 82 66 66 66 82 82 82 81 81 81 67 67 67 68 68 68 83 83 83 67 67 67 83 83 83 82 82 82 68 68 68 69 69 69 84 84 84 68 68 68 84 84 84 83 83 83 69 69 69 70 70 70 85 85 85 69 69 69 85 85 85 84 84 84 70 70 70 71 71 71 86 86 86 70 70 70 86 86 86 85 85 85 71 71 71 72 72 72 87 87 87 71 71 71 87 87 87 86 86 86 72 72 72 73 73 73 88 88 88 72 72 72 88 88 88 87 87 87 73 73 73 74 74 74 89 89 89 73 73 73 89 89 89 88 88 88 75 75 75 76 76 76 91 91 91 75 75 75 91 91 91 90 90 90 76 76 76 77 77 77 92 92 92 76 76 76 92 92 92 91 91 91 77 77 77 78 78 78 93 93 93 77 77 77 93 93 93 92 92 92 78 78 78 79 79 79 94 94 94 78 78 78 94 94 94 93 93 93 79 79 79 80 80 80 95 95 95 79 79 79 95 95 95 94 94 94 80 80 80 81 81 81 96 96 96 80 80 80 96 96 96 95 95 95 81 81 81 82 82 82 97 97 97 81 81 81 97 97 97 96 96 96 82 82 82 83 83 83 98 98 98 82 82 82 98 98 98 97 97 97 83 83 83 84 84 84 99 99 99 83 83 83 99 99 99 98 98 98 84 84 84 85 85 85 100 100 100 84 84 84 100 100 100 99 99 99 85 85 85 86 86 86 101 101 101 85 85 85 101 101 101 100 100 100 86 86 86 87 87 87 102 102 102 86 86 86 102 102 102 101 101 101 87 87 87 88 88 88 103 103 103 87 87 87 103 103 103 102 102 102 88 88 88 89 89 89 104 104 104 88 88 88 104 104 104 103 103 103 90 90 90 91 91 91 106 106 106 90 90 90 106 106 106 105 105 105 91 91 91 92 92 92 107 107 107 91 91 91 107 107 107 106 106 106 92 92 92 93 93 93 108 108 108 92 92 92 108 108 108 107 107 107 93 93 93 94 94 94 109 109 109 93 93 93 109 109 109 108 108 108 94 94 94 95 95 95 110 110 110 94 94 94 110 110 110 109 109 109 95 95 95 96 96 96 111 111 111 95 95 95 111 111 111 110 110 110 96 96 96 97 97 97 112 112 112 96 96 96 112 112 112 111 111 111 97 97 97 98 98 98 113 113 113 97 97 97 113 113 113 112 112 112 98 98 98 99 99 99 114 114 114 98 98 98 114 114 114 113 113 113 99 99 99 100 100 100 115 115 115 99 99 99 115 115 115 114 114 114 100 100 100 101 101 101 116 116 116 100 100 100 116 116 116 115 115 115 101 101 101 102 102 102 117 117 117 101 101 101 117 117 117 116 116 116 102 102 102 103 103 103 118 118 118 102 102 102 118 118 118 117 117 117 103 103 103 104 104 104 119 119 119 103 103 103 119 119 119 118 118 118 105 105 105 106 106 106 121 121 121 105 105 105 121 121 121 120 120 120 106 106 106 107 107 107 122 122 122 106 106 106 122 122 122 121 121 121 107 107 107 108 108 108 123 123 123 107 107 107 123 123 123 122 122 122 108 108 108 109 109 109 124 124 124 108 108 108 124 124 124 123 123 123 109 109 109 110 110 110 125 125 125 109 109 109 125 125 125 124 124 124 110 110 110 111 111 111 126 126 126 110 110 110 126 126 126 125 125 125 111 111 111 112 112 112 127 127 127 111 111 111 127 127 127 126 126 126 112 112 112 113 113 113 128 128 128 112 112 112 128 128 128 127 127 127 113 113 113 114 114 114 129 129 129 113 113 113 129 129 129 128 128 128 114 114 114 115 115 115 130 130 130 114 114 114 130 130 130 129 129 129 115 115 115 116 116 116 131 131 131 115 115 115 131 131 131 130 130 130 116 116 116 117 117 117 132 132 132 116 116 116 132 132 132 131 131 131 117 117 117 118 118 118 133 133 133 117 117 117 133 133 133 132 132 132 118 118 118 119 119 119 134 134 134 118 118 118 134 134 134 133 133 133 120 120 120 121 121 121 136 136 136 120 120 120 136 136 136 135 135 135 121 121 121 122 122 122 137 137 137 121 121 121 137 137 137 136 136 136 122 122 122 123 123 123 138 138 138 122 122 122 138 138 138 137 137 137 123 123 123 124 124 124 139 139 139 123 123 123 139 139 139 138 138 138 124 124 124 125 125 125 140 140 140 124 124 124 140 140 140 139 139 139 125 125 125 126 126 126 141 141 141 125 125 125 141 141 141 140 140 140 126 126 126 127 127 127 142 142 142 126 126 126 142 142 142 141 141 141 127 127 127 128 128 128 143 143 143 127 127 127 143 143 143 142 142 142 128 128 128 129 129 129 144 144 144 128 128 128 144 144 144 143 143 143 129 129 129 130 130 130 145 145 145 129 129 129 145 145 145 144 144 144 130 130 130 131 131 131 146 146 146 130 130 130 146 146 146 145 145 145 131 131 131 132 132 132 147 147 147 131 131 131 147 147 147 146 146 146 132 132 132 133 133 133 148 148 148 132 132 132 148 148 148 147 147 147 133 133 133 134 134 134 149 149 149 133 133 133 149 149 149 148 148 148 135 135 135 136 136 136 151 151 151 135 135 135 151 151 151 150 150 150 136 136 136 137 137 137 152 152 152 136 136 136 152 152 152 151 151 151 137 137 137 138 138 138 153 153 153 137 137 137 153 153 153 152 152 152 138 138 138 139 139 139 154 154 154 138 138 138 154 154 154 153 153 153 139 139 139 140 140 140 155 155 155 139 139 139 155 155 155 154 154 154 140 140 140 141 141 141 156 156 156 140 140 140 156 156 156 155 155 155 141 141 141 142 142 142 157 157 157 141 141 141 157 157 157 156 156 156 142 142 142 143 143 143 158 158 158 142 142 142 158 158 158 157 157 157 143 143 143 144 144 144 159 159 159 143 143 143 159 159 159 158 158 158 144 144 144 145 145 145 160 160 160 144 144 144 160 160 160 159 159 159 145 145 145 146 146 146 161 161 161 145 145 145 161 161 161 160 160 160 146 146 146 147 147 147 162 162 162 146 146 146 162 162 162 161 161 161 147 147 147 148 148 148 163 163 163 147 147 147 163 163 163 162 162 162 148 148 148 149 149 149 164 164 164 148 148 148 164 164 164 163 163 163</p></triangles>
 </mesh></geometry></library_geometries>
 <library_visual_scenes><visual_scene id="Scene" name="Scene"><node id="ball" name="ball" type="NODE"><instance_geometry url="#ball-mesh"><bind_material><technique_common><instance_material symbol="gtaBridge_skin" target="#gtaBridge_skin"/></technique_common></bind_material></instance_geometry></node></visual_scene></library_visual_scenes>
 <scene><instance_visual_scene url="#Scene"/></scene>
</COLLADA>
