<?xml version="1.0" encoding="utf-8"?>
<COLLADA xmlns="http://www.collada.org/2005/11/COLLADASchema" version="1.4.1">
 <asset><unit name="meter" meter="1"/><up_axis>Z_UP</up_axis></asset>
 <library_effects><effect id="gtaBridge_skin-effect"><profile_COMMON><technique sid="common"><phong><diffuse><color>0.80 0.62 0.50 1</color></diffuse></phong></technique></profile_COMMON></effect></library_effects>
 <library_materials><material id="gtaBridge_skin" name="gtaBridge_skin"><instance_effect url="#gtaBridge_skin-effect"/></material></library_materials>
 <library_geometries><geometry id="limb-mesh" name="limb"><mesh>
  <source id="limb-pos"><float_array id="limb-pos-a" count="420">0.50000 -0.50000 0.00000 0.45048 -0.50000 0.21694 0.45048 0.50000 0.21694 0.50000 0.50000 0.00000 0.00000 -0.50000 0.00000 0.50000 -0.50000 0.00000 0.45048 -0.50000 0.21694 0.00000 0.50000 0.00000 0.50000 0.50000 0.00000 0.45048 0.50000 0.21694 0.45048 -0.50000 0.21694 0.31174 -0.50000 0.39092 0.31174 0.50000 0.39092 0.45048 0.50000 0.21694 0.00000 -0.50000 0.00000 0.45048 -0.50000 0.21694 0.31174 -0.50000 0.39092 0.00000 0.50000 0.00000 0.45048 0.50000 0.21694 0.31174 0.50000 0.39092 0.31174 -0.50000 0.39092 0.11126 -0.50000 0.48746 0.11126 0.50000 0.48746 0.31174 0.50000 0.39092 0.00000 -0.50000 0.00000 0.31174 -0.50000 0.39092 0.11126 -0.50000 0.48746 0.00000 0.50000 0.00000 0.31174 0.50000 0.39092 0.11126 0.50000 0.48746 0.11126 -0.50000 0.48746 -0.11126 -0.50000 0.48746 -0.11126 0.50000 0.48746 0.11126 0.50000 0.48746 0.00000 -0.50000 0.00000 0.11126 -0.50000 0.48746 -0.11126 -0.50000 0.48746 0.00000 0.50000 0.00000 0.11126 0.50000 0.48746 -0.11126 0.50000 0.48746 -0.11126 -0.50000 0.48746 -0.31174 -0.50000 0.39092 -0.31174 0.50000 0.39092 -0.11126 0.50000 0.48746 0.00000 -0.50000 0.00000 -0.11126 -0.50000 0.48746 -0.31174 -0.50000 0.39092 0.00000 0.50000 0.00000 -0.11126 0.50000 0.48746 -0.31174 0.50000 0.39092 -0.31174 -0.50000 0.39092 -0.45048 -0.50000 0.21694 -0.45048 0.50000 0.21694 -0.31174 0.50000 0.39092 0.00000 -0.50000 0.00000 -0.31174 -0.50000 0.39092 -0.45048 -0.50000 0.21694 0.00000 0.50000 0.00000 -0.31174 0.50000 0.39092 -0.45048 0.50000 0.21694 -0.45048 -0.50000 0.21694 -0.50000 -0.50000 0.00000 -0.50000 0.50000 0.00000 -0.45048 0.50000 0.21694 0.00000 -0.50000 0.00000 -0.45048 -0.50000 0.21694 -0.50000 -0.50000 0.00000 0.00000 0.50000 0.00000 -0.45048 0.50000 0.21694 -0.50000 0.50000 0.00000 -0.50000 -0.50000 0.00000 -0.45048 -0.50000 -0.21694 -0.45048 0.50000 -0.21694 -0.50000 0.50000 0.00000 0.00000 -0.50000 0.00000 -0.50000 -0.50000 0.00000 -0.45048 -0.50000 -0.21694 0.00000 0.50000 0.00000 -0.50000 0.50000 0.00000 -0.45048 0.50000 -0.21694 -0.45048 -0.50000 -0.21694 -0.31174 -0.50000 -0.39092 -0.31174 0.50000 -0.39092 -0.45048 0.50000 -0.21694 0.00000 -0.50000 0.00000 -0.45048 -0.50000 -0.21694 -0.31174 -0.50000 -0.39092 0.00000 0.50000 0.00000 -0.45048 0.50000 -0.21694 -0.31174 0.50000 -0.39092 -0.31174 -0.50000 -0.39092 -0.11126 -0.50000 -0.48746 -0.11126 0.50000 -0.48746 -0.31174 0.50000 -0.39092 0.00000 -0.50000 0.00000 -0.31174 -0.50000 -0.39092 -0.11126 -0.50000 -0.48746 0.00000 0.50000 0.00000 -0.31174 0.50000 -0.39092 -0.11126 0.50000 -0.48746 -0.11126 -0.50000 -0.48746 0.11126 -0.50000 -0.48746 0.11126 0.50000 -0.48746 -0.11126 0.50000 -0.48746 0.00000 -0.50000 0.00000 -0.11126 -0.50000 -0.48746 0.11126 -0.50000 -0.48746 0.00000 0.50000 0.00000 -0.11126 0.50000 -0.48746 0.11126 0.50000 -0.48746 0.11126 -0.50000 -0.48746 0.31174 -0.50000 -0.39092 0.31174 0.50000 -0.39092 0.11126 0.50000 -0.48746 0.00000 -0.50000 0.00000 0.11126 -0.50000 -0.48746 0.31174 -0.50000 -0.39092 0.00000 0.50000 0.00000 0.11126 0.50000 -0.48746 0.31174 0.50000 -0.39092 0.31174 -0.50000 -0.39092 0.45048 -0.50000 -0.21694 0.45048 0.50000 -0.21694 0.31174 0.50000 -0.39092 0.00000 -0.50000 0.00000 0.31174 -0.50000 -0.39092 0.45048 -0.50000 -0.21694 0.00000 0.50000 0.00000 0.31174 0.50000 -0.39092 0.45048 0.50000 -0.21694 0.45048 -0.50000 -0.21694 0.50000 -0.50000 -0.00000 0.50000 0.50000 -0.00000 0.45048 0.50000 -0.21694 0.00000 -0.50000 0.00000 0.45048 -0.50000 -0.21694 0.50000 -0.50000 -0.00000 0.00000 0.50000 0.00000 0.45048 0.50000 -0.21694 0.50000 0.50000 -0.00000</float_array><technique_common><accessor source="#limb-pos-a" count="140" stride="3"><param name="X" type="float"/><param name="Y" type="float"/><param name="Z" type="float"/></accessor></technique_common></source>
  <source id="limb-nrm"><float_array id="limb-nrm-a" count="420">1.00000 0.00000 0.00000 0.90097 0.00000 0.43388 0.90097 0.00000 0.43388 1.00000 0.00000 0.00000 0.00000 -1.00000 0.00000 0.00000 -1.00000 0.00000 0.00000 -1.00000 0.00000 0.00000 1.00000 0.00000 0.00000 1.00000 0.00000 0.00000 1.00000 0.00000 0.90097 0.00000 0.43388 0.62349 0.00000 0.78183 0.62349 0.00000 0.78183 0.90097 0.00000 0.43388 0.00000 -1.00000 0.00000 0.00000 -1.00000 0.00000 0.00000 -1.00000 0.00000 0.00000 1.00000 0.00000 0.00000 1.00000 0.00000 0.00000 1.00000 0.00000 0.62349 0.00000 0.78183 0.22252 0.00000 0.97493 0.22252 0.00000 0.97493 0.62349 0.00000 0.78183 0.00000 -1.00000 0.00000 0.00000 -1.00000 0.00000 0.00000 -1.00000 0.00000 0.00000 1.00000 0.00000 0.00000 1.00000 0.00000 0.00000 1.00000 0.00000 0.22252 0.00000 0.97493 -0.22252 0.00000 0.97493 -0.22252 0.00000 0.97493 0.22252 0.00000 0.97493 0.00000 -1.00000 0.00000 0.00000 -1.00000 0.00000 0.00000 -1.00000 0.00000 0.00000 1.00000 0.00000 0.00000 1.00000 0.00000 0.00000 1.00000 0.00000 -0.22252 0.00000 0.97493 -0.62349 0.00000 0.78183 -0.62349 0.00000 0.78183 -0.22252 0.00000 0.97493 0.00000 -1.00000 0.00000 0.00000 -1.00000 0.00000 0.00000 -1.00000 0.00000 0.00000 1.00000 0.00000 0.00000 1.00000 0.00000 0.00000 1.00000 0.00000 -0.62349 0.00000 0.78183 -0.90097 0.00000 0.43388 -0.90097 0.00000 0.43388 -0.62349 0.00000 0.78183 0.00000 -1.00000 0.00000 0.00000 -1.00000 0.00000 0.00000 -1.00000 0.00000 0.00000 1.00000 0.00000 0.00000 1.00000 0.00000 0.00000 1.00000 0.00000 -0.90097 0.00000 0.43388 -1.00000 0.00000 0.00000 -1.00000 0.00000 0.00000 -0.90097 0.00000 0.43388 0.00000 -1.00000 0.00000 0.00000 -1.00000 0.00000 0.00000 -1.00000 0.00000 0.00000 1.00000 0.00000 0.00000 1.00000 0.00000 0.00000 1.00000 0.00000 -1.00000 0.00000 0.00000 -0.90097 0.00000 -0.43388 -0.90097 0.00000 -0.43388 -1.00000 0.00000 0.00000 0.00000 -1.00000 0.00000 0.00000 -1.00000 0.00000 0.00000 -1.00000 0.00000 0.00000 1.00000 0.00000 0.00000 1.00000 0.00000 0.00000 1.00000 0.00000 -0.90097 0.00000 -0.43388 -0.62349 0.00000 -0.78183 -0.62349 0.00000 -0.78183 -0.90097 0.00000 -0.43388 0.00000 -1.00000 0.00000 0.00000 -1.00000 0.00000 0.00000 -1.00000 0.00000 0.00000 1.00000 0.00000 0.00000 1.00000 0.00000 0.00000 1.00000 0.00000 -0.62349 0.00000 -0.78183 -0.22252 0.00000 -0.97493 -0.22252 0.00000 -0.97493 -0.62349 0.00000 -0.78183 0.00000 -1.00000 0.00000 0.00000 -1.00000 0.00000 0.00000 -1.00000 0.00000 0.00000 1.00000 0.00000 0.00000 1.00000 0.00000 0.00000 1.00000 0.00000 -0.22252 0.00000 -0.97493 0.22252 0.00000 -0.97493 0.22252 0.00000 -0.97493 -0.22252 0.00000 -0.97493 0.00000 -1.00000 0.00000 0.00000 -1.00000 0.00000 0.00000 -1.00000 0.00000 0.00000 1.00000 0.00000 0.00000 1.00000 0.00000 0.00000 1.00000 0.00000 0.22252 0.00000 -0.97493 0.62349 0.00000 -0.78183 0.62349 0.00000 -0.78183 0.22252 0.00000 -0.97493 0.00000 -1.00000 0.00000 0.00000 -1.00000 0.00000 0.00000 -1.00000 0.00000 0.00000 1.00000 0.00000 0.00000 1.00000 0.00000 0.00000 1.00000 0.00000 0.62349 0.00000 -0.78183 0.90097 0.00000 -0.43388 0.90097 0.00000 -0.43388 0.62349 0.00000 -0.78183 0.00000 -1.00000 0.00000 0.00000 -1.00000 0.00000 0.00000 -1.00000 0.00000 0.00000 1.00000 0.00000 0.00000 1.00000 0.00000 0.00000 1.00000 0.00000 0.90097 0.00000 -0.43388 1.00000 0.00000 -0.00000 1.00000 0.00000 -0.00000 0.90097 0.00000 -0.43388 0.00000 -1.00000 0.00000 0.00000 -1.00000 0.00000 0.00000 -1.00000 0.00000 0.00000 1.00000 0.00000 0.00000 1.00000 0.00000 0.00000 1.00000 0.00000</float_array><technique_common><accessor source="#limb-nrm-a" count="140" stride="3"><param name="X" type="float"/><param name="Y" type="float"/><param name="Z" type="float"/></accessor></technique_common></source>
  <source id="limb-uv"><float_array id="limb-uv-a" count="280">0.00000 0.00000 0.07143 0.00000 0.07143 1.00000 0.00000 1.00000 0.50000 0.50000 0.50000 0.50000 0.50000 0.50000 0.50000 0.50000 0.50000 0.50000 0.50000 0.50000 0.07143 0.00000 0.14286 0.00000 0.14286 1.00000 0.07143 1.00000 0.50000 0.50000 0.50000 0.50000 0.50000 0.50000 0.50000 0.50000 0.50000 0.50000 0.50000 0.50000 0.14286 0.00000 0.21429 0.00000 0.21429 1.00000 0.14286 1.00000 0.50000 0.50000 0.50000 0.50000 0.50000 0.50000 0.50000 0.50000 0.50000 0.50000 0.50000 0.50000 0.21429 0.00000 0.28571 0.00000 0.28571 1.00000 0.21429 1.00000 0.50000 0.50000 0.50000 0.50000 0.50000 0.50000 0.50000 0.50000 0.50000 0.50000 0.50000 0.50000 0.28571 0.00000 0.35714 0.00000 0.35714 1.00000 0.28571 1.00000 0.50000 0.50000 0.50000 0.50000 0.50000 0.50000 0.50000 0.50000 0.50000 0.50000 0.50000 0.50000 0.35714 0.00000 0.42857 0.00000 0.42857 1.00000 0.35714 1.00000 0.50000 0.50000 0.50000 0.50000 0.50000 0.50000 0.50000 0.50000 0.50000 0.50000 0.50000 0.50000 0.42857 0.00000 0.50000 0.00000 0.50000 1.00000 0.42857 1.00000 0.50000 0.50000 0.50000 0.50000 0.50000 0.50000 0.50000 0.50000 0.50000 0.50000 0.50000 0.50000 0.50000 0.00000 0.57143 0.00000 0.57143 1.00000 0.50000 1.00000 0.50000 0.50000 0.50000 0.50000 0.50000 0.50000 0.50000 0.50000 0.50000 0.50000 0.50000 0.50000 0.57143 0.00000 0.64286 0.00000 0.64286 1.00000 0.57143 1.00000 0.50000 0.50000 0.50000 0.50000 0.50000 0.50000 0.50000 0.50000 0.50000 0.50000 0.50000 0.50000 0.64286 0.00000 0.71429 0.00000 0.71429 1.00000 0.64286 1.00000 0.50000 0.50000 0.50000 0.50000 0.50000 0.50000 0.50000 0.50000 0.50000 0.50000 0.50000 0.50000 0.71429 0.00000 0.78571 0.00000 0.78571 1.00000 0.71429 1.00000 0.50000 0.50000 0.50000 0.50000 0.50000 0.50000 0.50000 0.50000 0.50000 0.50000 0.50000 0.50000 0.78571 0.00000 0.85714 0.00000 0.85714 1.00000 0.78571 1.00000 0.50000 0.50000 0.50000 0.50000 0.50000 0.50000 0.50000 0.50000 0.50000 0.50000 0.50000 0.50000 0.85714 0.00000 0.92857 0.00000 0.92857 1.00000 0.85714 1.00000 0.50000 0.50000 0.50000 0.50000 0.50000 0.50000 0.50000 0.50000 0.50000 0.50000 0.50000 0.50000 0.92857 0.00000 1.00000 0.00000 1.00000 1.00000 0.92857 1.00000 0.50000 0.50000 0.50000 0.50000 0.50000 0.50000 0.50000 0.50000 0.50000 0.50000 0.50000 0.50000</float_array><technique_common><accessor source="#limb-uv-a" count="140" stride="2"><param name="S" type="float"/><param name="T" type="float"/></accessor></technique_common></source>
  <vertices id="limb-vtx"><input semantic="POSITION" source="#limb-pos"/></vertices>
  <triangles material="gtaBridge_skin" count="56"><input semantic="VERTEX" source="#limb-vtx" offset="0"/><input semantic="NORMAL" source="#limb-nrm" offset="1"/><input semantic="TEXCOORD" source="#limb-uv" offset="2" set="0"/><p>0 0 0 3 3 3 2 2 2 0 0 0 2 2 2 1 1 1 4 4 4 6 6 6 5 5 5 7 7 7 8 8 8 9 9 9 10 10 10 13 13 13 12 12 12 10 10 10 12 12 12 11 11 11 14 14 14 16 16 16 15 15 15 17 17 17 18 18 18 19 19 19 20 20 20 23 23 23 22 22 22 20 20 20 22 22 22 21 21 21 24 24 24 26 26 26 25 25 25 27 27 27 28 28 28 29 29 29 30 30 30 33 33 33 32 32 32 30 30 30 32 32 32 31 31 31 34 34 34 36 36 36 35 35 35 37 37 37 38 38 38 39 39 39 40 40 40 43 43 43 42 42 42 40 40 40 42 42 42 41 41 41 44 44 44 46 46 46 45 45 45 47 47 47 48 48 48 49 49 49 50 50 50 53 53 53 52 52 52 50 50 50 52 52 52 51 51 51 54 54 54 56 56 56 55 55 55 57 57 57 58 58 58 59 59 59 60 60 60 63 63 63 62 62 62 60 60 60 62 62 62 61 61 61 64 64 64 66 66 66 65 65 65 67 67 67 68 68 68 69 69 69 70 70 70 73 73 73 72 72 72 70 70 70 72 72 72 71 71 71 74 74 74 76 76 76 75 75 75 77 77 77 78 78 78 79 79 79 80 80 80 83 83 83 82 82 82 80 80 80 82 82 82 81 81 81 84 84 84 86 86 86 85 85 85 87 87 87 88 88 88 89 89 89 90 90 90 93 93 93 92 92 92 90 90 90 92 92 92 91 91 91 94 94 94 96 96 96 95 95 95 97 97 97 98 98 98 99 99 99 100 100 100 103 103 103 102 102 102 100 100 100 102 102 102 101 101 101 104 104 104 106 106 106 105 105 105 107 107 107 108 108 108 109 109 109 110 110 110 113 113 113 112 112 112 110 110 110 112 112 112 111 111 111 114 114 114 116 116 116 115 115 115 117 117 117 118 118 118 119 119 119 120 120 120 123 123 123 122 122 122 120 120 120 122 122 122 121 121 121 124 124 124 126 126 126 125 125 125 127 127 127 128 128 128 129 129 129 130 130 130 133 133 133 132 132 132 130 130 130 132 132 132 131 131 131 134 134 134 136 136 136 135 135 135 137 137 137 138 138 138 139 139 139</p></triangles>
 </mesh></geometry></library_geometries>
 <library_visual_scenes><visual_scene id="Scene" name="Scene"><node id="limb" name="limb" type="NODE"><instance_geometry url="#limb-mesh"><bind_material><technique_common><instance_material symbol="gtaBridge_skin" target="#gtaBridge_skin"/></technique_common></bind_material></instance_geometry></node></visual_scene></library_visual_scenes>
 <scene><instance_visual_scene url="#Scene"/></scene>
</COLLADA>
